Coordinates
version=1
nRows=29
nColumns=24
inDegrees=yes

Units are S.I. units (second, meters, Newtons, ...)
If the header above contains a line with 'inDegrees', this indicates whether rotational values are in degrees (yes) or radians (no).

endheader
time	pelvis_tilt	pelvis_list	pelvis_rotation	pelvis_tx	pelvis_ty	pelvis_tz	hip_flexion_r	hip_adduction_r	hip_rotation_r	knee_angle_r	ankle_angle_r	subtalar_angle_r	mtp_angle_r	hip_flexion_l	hip_adduction_l	hip_rotation_l	knee_angle_l	ankle_angle_l	subtalar_angle_l	mtp_angle_l	lumbar_extension	lumbar_bending	lumbar_rotation
5.450000	9.393917	2.842159	-180.156756	0.315228	0.510541	-1.209047	78.748716	-27.429620	-4.677057	-111.455135	38.717218	7.786624	0.000000	83.020098	-30.632862	2.748854	-111.871030	39.812809	13.448172	0.000000	-13.901721	2.259034	3.176406
5.455000	9.341542	2.850786	-180.131014	0.315284	0.509493	-1.209067	78.834779	-27.493920	-4.638093	-111.647560	38.753680	7.796697	0.000000	83.148722	-30.673144	2.828449	-112.045562	39.855434	13.561798	0.000000	-13.993498	2.275443	3.161009
5.460000	9.332529	2.852963	-180.114137	0.315388	0.508433	-1.209132	78.982775	-27.541962	-4.592683	-111.842898	38.802266	7.756364	0.000000	83.316717	-30.712652	2.901333	-112.224430	39.898259	13.626577	0.000000	-14.033268	2.261095	3.215885
5.465000	9.272989	2.861886	-180.092610	0.315429	0.507394	-1.209069	79.077168	-27.607616	-4.545720	-112.049587	38.823384	7.739407	0.000000	83.434776	-30.747643	2.982698	-112.422212	39.953734	13.670190	0.000000	-14.128674	2.286283	3.193393
5.470000	9.264412	2.866151	-180.076954	0.315578	0.506390	-1.209114	79.223070	-27.651735	-4.504082	-112.239187	38.843470	7.711517	0.000000	83.608346	-30.795748	3.051484	-112.588453	39.954882	13.752891	0.000000	-14.177458	2.282464	3.205250
5.475000	9.235164	2.878912	-180.045286	0.315666	0.505436	-1.209103	79.314596	-27.712996	-4.473415	-112.406484	38.888230	7.698645	0.000000	83.749662	-30.841456	3.118412	-112.752359	39.993770	13.855283	0.000000	-14.242411	2.302879	3.215838
5.480000	9.207971	2.884265	-179.978878	0.315813	0.504586	-1.209146	79.394448	-27.783389	-4.431411	-112.554718	38.935161	7.695885	0.000000	83.879886	-30.843625	3.179599	-112.874488	40.015752	13.950442	0.000000	-14.321631	2.310906	3.145767
5.485000	9.166953	2.877214	-179.925673	0.315917	0.503718	-1.209166	79.476224	-27.863723	-4.385177	-112.716056	38.992185	7.671587	0.000000	83.986279	-30.858973	3.221158	-113.011935	40.073888	14.065053	0.000000	-14.397540	2.296137	3.153709
5.490000	9.143704	2.883616	-179.884157	0.316049	0.502873	-1.209161	79.578176	-27.918532	-4.340972	-112.875556	39.017546	7.663032	0.000000	84.117726	-30.876849	3.278059	-113.149728	40.110044	14.133599	0.000000	-14.473718	2.315614	3.098372
5.495000	9.115361	2.887765	-179.855380	0.316157	0.502043	-1.209189	79.678413	-27.966738	-4.307751	-113.041470	39.057637	7.621088	0.000000	84.264358	-30.917352	3.350081	-113.305275	40.082511	14.238532	0.000000	-14.538390	2.309980	3.141068
5.500000	9.122671	2.898224	-179.827040	0.316352	0.501229	-1.209214	79.804660	-27.993520	-4.273060	-113.180294	39.066947	7.592160	0.000000	84.414736	-30.943189	3.394874	-113.418866	40.121410	14.283696	0.000000	-14.587713	2.322417	3.131537
5.505000	9.070358	2.864793	-179.769767	0.316442	0.500469	-1.209189	79.877979	-28.080171	-4.196505	-113.326595	39.093202	7.568138	0.000000	84.496000	-30.944412	3.418133	-113.557560	40.110366	14.416160	0.000000	-14.670885	2.293337	3.119221
5.510000	9.084523	2.863330	-179.723246	0.316674	0.499718	-1.209292	80.003457	-28.110394	-4.152668	-113.452601	39.123904	7.530037	0.000000	84.634904	-30.941928	3.451680	-113.631489	40.142386	14.464837	0.000000	-14.708762	2.285309	3.110956
5.515000	9.080688	2.855733	-179.667342	0.316863	0.498983	-1.209372	80.110428	-28.158597	-4.109090	-113.581158	39.155488	7.494512	0.000000	84.749374	-30.939617	3.461053	-113.685169	40.122398	14.436983	0.000000	-14.757108	2.265879	3.064855
5.520000	9.080236	2.861639	-179.615620	0.317024	0.498317	-1.209414	80.206127	-28.201102	-4.078358	-113.700585	39.183967	7.473988	0.000000	84.897076	-30.923698	3.550831	-113.807799	40.099395	14.505549	0.000000	-14.792609	2.276275	3.064398
5.525000	9.104870	2.830009	-179.565746	0.317254	0.497559	-1.209393	80.374120	-28.259236	-3.992212	-113.833042	39.202010	7.439803	0.000000	85.025990	-30.895414	3.530994	-113.890215	40.110094	14.489176	0.000000	-14.804592	2.236537	3.044598
5.530000	9.126586	2.783559	-179.532435	0.317478	0.496899	-1.209438	80.532277	-28.299718	-3.889473	-113.951230	39.189972	7.144653	0.000000	85.138964	-30.888918	3.508837	-113.971601	40.100333	14.502284	0.000000	-14.822075	2.179678	3.017195
5.535000	9.132088	2.759598	-179.479319	0.317739	0.496271	-1.209520	80.646370	-28.335018	-3.819904	-114.054981	39.216956	7.117438	0.000000	85.247000	-30.856318	3.532547	-114.041124	40.082532	14.547773	0.000000	-14.863367	2.145843	2.999655
5.540000	9.156845	2.725472	-179.423749	0.317963	0.495649	-1.209586	80.786774	-28.392212	-3.754528	-114.159061	39.204782	7.076611	0.000000	85.368742	-30.836469	3.524538	-114.115933	40.055849	14.605379	0.000000	-14.869232	2.103019	2.963581
5.545000	9.167727	2.711884	-179.397559	0.318182	0.495026	-1.209604	80.875437	-28.390128	-3.534354	-114.226191	39.464777	7.688141	0.000000	85.492058	-30.835206	3.549931	-114.209030	40.051086	14.629156	0.000000	-14.896406	2.085497	2.992178
5.550000	9.150285	2.695685	-179.358683	0.318312	0.494489	-1.209542	81.015274	-28.466643	-3.644369	-114.381212	39.205302	7.135365	0.000000	85.586742	-30.818412	3.600183	-114.337896	40.032443	14.706778	0.000000	-14.949070	2.079947	2.956868
5.555000	9.199234	2.698754	-179.312542	0.318546	0.493930	-1.209546	81.085470	-28.469776	-3.412579	-114.360617	39.629320	7.989097	0.000000	85.749617	-30.783420	3.645101	-114.403211	39.992930	14.709810	0.000000	-14.927254	2.088883	2.968336
5.560000	9.172334	2.680669	-179.249769	0.318755	0.493475	-1.209664	81.205821	-28.540212	-3.560866	-114.547742	39.221880	7.040044	0.000000	85.806644	-30.756855	3.660508	-114.438338	40.005108	14.751813	0.000000	-14.998623	2.070738	2.904559
5.565000	9.236464	2.698051	-179.212198	0.319094	0.492983	-1.209772	81.266974	-28.506418	-3.353981	-114.499985	39.630157	7.905395	0.000000	85.991680	-30.733753	3.724804	-114.472392	39.965338	14.771635	0.000000	-14.981993	2.086652	2.907637
5.570000	9.201135	2.688722	-179.156303	0.319289	0.492579	-1.209858	81.378677	-28.572596	-3.512544	-114.686808	39.226342	6.956888	0.000000	86.047007	-30.706204	3.757614	-114.521281	39.957843	14.839166	0.000000	-15.056858	2.071854	2.897770
5.575000	9.236543	2.727460	-179.161785	0.319579	0.492139	-1.209999	81.416119	-28.497034	-3.339433	-114.652523	39.626223	7.740432	0.000000	86.215987	-30.734095	3.854727	-114.575473	39.913378	14.868088	0.000000	-15.065176	2.096722	2.952333
5.580000	9.200611	2.712668	-179.121780	0.319751	0.491774	-1.209958	81.527894	-28.565656	-3.463427	-114.834069	39.219995	6.963261	0.000000	86.256564	-30.708013	3.867149	-114.653943	39.901384	14.884202	0.000000	-15.140652	2.101563	2.926577
5.585000	9.208654	2.737021	-179.100218	0.319997	0.491370	-1.209995	81.531074	-28.544063	-3.300048	-114.793004	39.616829	7.694685	0.000000	86.375649	-30.703200	3.936828	-114.712075	39.866216	14.913179	0.000000	-15.175151	2.133261	2.953726
5.590000	9.201692	2.743779	-179.062152	0.320250	0.491070	-1.210066	81.638173	-28.583649	-3.489512	-114.929852	39.178789	6.746937	0.000000	86.447000	-30.682282	3.970790	-114.736757	39.861784	14.975150	0.000000	-15.231739	2.148746	2.936330
